<svg xmlns="http://www.w3.org/2000/svg" xmlns:xlink="http://www.w3.org/1999/xlink" width="400" zoomAndPan="magnify" viewBox="0 0 300 299.999988" height="400" preserveAspectRatio="xMidYMid meet" version="1.2"><defs><clipPath id="30592ca90c"><path d="M 41.28125 11.554688 L 108.765625 11.554688 L 108.765625 219.546875 L 41.28125 219.546875 Z M 41.28125 11.554688 "/></clipPath><clipPath id="5f2d665037"><path d="M 108.765625 14.550781 L 108.765625 216.304688 C 108.765625 217.960938 107.421875 219.304688 105.765625 219.304688 L 44.28125 219.304688 C 42.625 219.304688 41.28125 217.960938 41.28125 216.304688 L 41.28125 14.550781 C 41.28125 12.894531 42.625 11.554688 44.28125 11.554688 L 105.765625 11.554688 C 107.421875 11.554688 108.765625 12.894531 108.765625 14.550781 Z M 108.765625 14.550781 "/></clipPath><clipPath id="b655629354"><path d="M 0.28125 0.554688 L 67.765625 0.554688 L 67.765625 208.359375 L 0.28125 208.359375 Z M 0.28125 0.554688 "/></clipPath><clipPath id="023de6ed93"><path d="M 67.765625 3.550781 L 67.765625 205.304688 C 67.765625 206.960938 66.421875 208.304688 64.765625 208.304688 L 3.28125 208.304688 C 1.625 208.304688 0.28125 206.960938 0.28125 205.304688 L 0.28125 3.550781 C 0.28125 1.894531 1.625 0.554688 3.28125 0.554688 L 64.765625 0.554688 C 66.421875 0.554688 67.765625 1.894531 67.765625 3.550781 Z M 67.765625 3.550781 "/></clipPath><clipPath id="ea3f7b9231"><rect x="0" width="68" y="0" height="209"/></clipPath><clipPath id="6d78107596"><path d="M 43 221.285156 L 185.234375 221.285156 L 185.234375 288.445312 L 43 288.445312 Z M 43 221.285156 "/></clipPath><clipPath id="b8e8bef583"><path d="M 119.667969 223.648438 L 184.199219 283.351562 C 185.085938 284.175781 185.382812 285.453125 184.941406 286.582031 C 184.5 287.707031 183.414062 288.445312 182.207031 288.445312 L 46.121094 288.445312 C 44.910156 288.445312 43.824219 287.707031 43.386719 286.582031 C 42.945312 285.453125 43.238281 284.175781 44.125 283.351562 L 108.65625 223.648438 C 111.765625 220.773438 116.5625 220.773438 119.667969 223.648438 Z M 119.667969 223.648438 "/></clipPath><clipPath id="a8c8066d6f"><path d="M 0 0.285156 L 142.234375 0.285156 L 142.234375 67.445312 L 0 67.445312 Z M 0 0.285156 "/></clipPath><clipPath id="a7de61d4c6"><path d="M 76.667969 2.648438 L 141.199219 62.351562 C 142.085938 63.175781 142.382812 64.453125 141.941406 65.582031 C 141.5 66.707031 140.414062 67.445312 139.207031 67.445312 L 3.121094 67.445312 C 1.910156 67.445312 0.824219 66.707031 0.386719 65.582031 C -0.0546875 64.453125 0.238281 63.175781 1.125 62.351562 L 65.65625 2.648438 C 68.765625 -0.226562 73.5625 -0.226562 76.667969 2.648438 Z M 76.667969 2.648438 "/></clipPath><clipPath id="68054a15ee"><rect x="0" width="143" y="0" height="68"/></clipPath><clipPath id="1ad289b176"><path d="M 107.28125 220.945312 L 261.527344 220.945312 L 261.527344 288.445312 L 107.28125 288.445312 Z M 107.28125 220.945312 "/></clipPath><clipPath id="2685a90e29"><path d="M 261.347656 228.445312 L 261.347656 280.949219 C 261.347656 282.9375 260.558594 284.84375 259.152344 286.25 C 257.746094 287.65625 255.835938 288.445312 253.847656 288.445312 L 114.777344 288.445312 C 112.789062 288.445312 110.882812 287.65625 109.476562 286.25 C 108.070312 284.84375 107.28125 282.9375 107.28125 280.949219 L 107.28125 228.445312 C 107.28125 226.457031 108.070312 224.550781 109.476562 223.144531 C 110.882812 221.738281 112.789062 220.945312 114.777344 220.945312 L 253.847656 220.945312 C 255.835938 220.945312 257.746094 221.738281 259.152344 223.144531 C 260.558594 224.550781 261.347656 226.457031 261.347656 228.445312 Z M 261.347656 228.445312 "/></clipPath><clipPath id="a289f87ff1"><path d="M 0.28125 0.945312 L 154.359375 0.945312 L 154.359375 68.445312 L 0.28125 68.445312 Z M 0.28125 0.945312 "/></clipPath><clipPath id="c1de3324cc"><path d="M 154.347656 8.445312 L 154.347656 60.949219 C 154.347656 62.9375 153.558594 64.84375 152.152344 66.25 C 150.746094 67.65625 148.835938 68.445312 146.847656 68.445312 L 7.777344 68.445312 C 5.789062 68.445312 3.882812 67.65625 2.476562 66.25 C 1.070312 64.84375 0.28125 62.9375 0.28125 60.949219 L 0.28125 8.445312 C 0.28125 6.457031 1.070312 4.550781 2.476562 3.144531 C 3.882812 1.738281 5.789062 0.945312 7.777344 0.945312 L 146.847656 0.945312 C 148.835938 0.945312 150.746094 1.738281 152.152344 3.144531 C 153.558594 4.550781 154.347656 6.457031 154.347656 8.445312 Z M 154.347656 8.445312 "/></clipPath><clipPath id="b89f3233e4"><rect x="0" width="155" y="0" height="69"/></clipPath></defs><g id="65703a0fa2"><g clip-rule="nonzero" clip-path="url(#30592ca90c)"><g clip-rule="nonzero" clip-path="url(#5f2d665037)"><g transform="matrix(1,0,0,1,41,11)"><g clip-path="url(#ea3f7b9231)"><g clip-rule="nonzero" clip-path="url(#b655629354)"><g clip-rule="nonzero" clip-path="url(#023de6ed93)"><path style=" stroke:none;fill-rule:nonzero;fill:#c2ac90;fill-opacity:1;" d="M 0.28125 0.554688 L 67.765625 0.554688 L 67.765625 208.28125 L 0.28125 208.28125 Z M 0.28125 0.554688 "/></g></g></g></g></g></g><g clip-rule="nonzero" clip-path="url(#6d78107596)"><g clip-rule="nonzero" clip-path="url(#b8e8bef583)"><g transform="matrix(1,0,0,1,43,221)"><g clip-path="url(#68054a15ee)"><g clip-rule="nonzero" clip-path="url(#a8c8066d6f)"><g clip-rule="nonzero" clip-path="url(#a7de61d4c6)"><path style=" stroke:none;fill-rule:nonzero;fill:#c2ac90;fill-opacity:1;" d="M -4.378906 -2.445312 L 146.601562 -2.445312 L 146.601562 67.445312 L -4.378906 67.445312 Z M -4.378906 -2.445312 "/></g></g></g></g></g></g><g clip-rule="nonzero" clip-path="url(#1ad289b176)"><g clip-rule="nonzero" clip-path="url(#2685a90e29)"><g transform="matrix(1,0,0,1,107,220)"><g clip-path="url(#b89f3233e4)"><g clip-rule="nonzero" clip-path="url(#a289f87ff1)"><g clip-rule="nonzero" clip-path="url(#c1de3324cc)"><path style=" stroke:none;fill-rule:nonzero;fill:#c2ac90;fill-opacity:1;" d="M 0.28125 0.945312 L 154.265625 0.945312 L 154.265625 68.445312 L 0.28125 68.445312 Z M 0.28125 0.945312 "/></g></g></g></g></g></g></g></svg>